<svg xmlns="http://www.w3.org/2000/svg" width="35" height="35" viewBox="0 0 35 35">
  <defs>
    <style>
      .cls-1 {
        fill: #5c8be6;
      }
    </style>
  </defs>
  <path id="Icon_awesome-github" data-name="Icon awesome-github" class="cls-1" d="M11.707,28.744c0,.145-.162.261-.367.261-.233.022-.4-.094-.4-.261,0-.145.162-.261.367-.261C11.523,28.462,11.707,28.578,11.707,28.744Zm-2.195-.326c-.049.145.092.311.3.355a.327.327,0,0,0,.437-.145c.042-.145-.092-.311-.3-.376A.358.358,0,0,0,9.512,28.419Zm3.119-.123c-.2.051-.346.188-.325.355.021.145.2.239.416.188s.346-.188.325-.333S12.836,28.274,12.631,28.3ZM17.274.563C7.487.563,0,8.183,0,18.221A18.118,18.118,0,0,0,11.961,35.533c.9.166,1.221-.405,1.221-.876,0-.449-.021-2.924-.021-4.444,0,0-4.94,1.086-5.977-2.157,0,0-.8-2.106-1.962-2.649,0,0-1.616-1.136.113-1.115a3.71,3.71,0,0,1,2.724,1.867A3.678,3.678,0,0,0,13.2,27.673a4.062,4.062,0,0,1,1.129-2.439c-3.945-.449-7.924-1.035-7.924-8a5.557,5.557,0,0,1,1.665-4.263A7,7,0,0,1,8.256,8.06c1.475-.47,4.869,1.954,4.869,1.954a16.269,16.269,0,0,1,8.863,0s3.394-2.432,4.869-1.954a7,7,0,0,1,.183,4.914,5.691,5.691,0,0,1,1.821,4.263c0,6.984-4.156,7.541-8.1,8a4.339,4.339,0,0,1,1.2,3.358c0,2.439-.021,5.457-.021,6.05,0,.47.325,1.042,1.221.876C30.216,33.116,35,26.248,35,18.221A17.514,17.514,0,0,0,17.274.563ZM6.859,25.524c-.092.072-.071.239.049.376.113.116.275.166.367.072.092-.072.071-.239-.049-.376C7.113,25.48,6.951,25.43,6.859,25.524ZM6.1,24.938c-.049.094.021.21.162.282a.207.207,0,0,0,.3-.051c.049-.094-.021-.21-.162-.282C6.259,24.844,6.146,24.865,6.1,24.938Zm2.286,2.576c-.113.094-.071.311.092.449.162.166.367.188.459.072.092-.094.049-.311-.092-.449C8.686,27.42,8.475,27.4,8.383,27.514Zm-.8-1.064c-.113.072-.113.261,0,.427s.3.239.4.166a.336.336,0,0,0,0-.449C7.875,26.429,7.692,26.356,7.579,26.45Z" transform="translate(0 -0.563)"/>
</svg>
