<svg xmlns="http://www.w3.org/2000/svg" width="15" height="15" viewBox="0 0 15 15"><path d="M8.063.563a7.5,7.5,0,1,0,7.5,7.5A7.5,7.5,0,0,0,8.063.563ZM11.6,11.049a4.515,4.515,0,0,1-3.322,1.383,4.26,4.26,0,0,1-4.369-4.4A4.259,4.259,0,0,1,8.261,3.693,4.355,4.355,0,0,1,11.389,4.87a.363.363,0,0,1,.037.442L10.749,6.36a.363.363,0,0,1-.551.069,3.077,3.077,0,0,0-1.871-.722,2.165,2.165,0,0,0-2.235,2.3,2.263,2.263,0,0,0,2.246,2.41,2.965,2.965,0,0,0,1.982-.866.363.363,0,0,1,.56.032l.742,1.015a.363.363,0,0,1-.017.45Z" transform="translate(-0.563 -0.563)" fill="#dfe3e7"/></svg>